<?xml version="1.0" encoding="utf-8"?>
<!-- Generator: Adobe Illustrator 15.0.0, SVG Export Plug-In . SVG Version: 6.00 Build 0)  -->
<!DOCTYPE svg PUBLIC "-//W3C//DTD SVG 1.1//EN" "http://www.w3.org/Graphics/SVG/1.1/DTD/svg11.dtd">
<svg version="1.1" id="Layer_1" xmlns="http://www.w3.org/2000/svg" xmlns:xlink="http://www.w3.org/1999/xlink" x="0px" y="0px"
	 width="840px" height="440px" viewBox="0 0 840 440" enable-background="new 0 0 840 440" xml:space="preserve">
<g>
	<path fill="#1B1A1E" d="M228.736,419.271c110.67,0,200.38-89.71,200.38-200.37c0-110.67-89.71-200.38-200.38-200.38
		c-110.659,0-200.37,89.71-200.37,200.38C28.366,329.561,118.077,419.271,228.736,419.271"/>
	<path fill="#1B1A1E" d="M637.044,19.989c-60.689,0-116.35,7.87-159.739,20.97v24.561v116.77v107.21
		c0,28.96,23.729,55.8,79.35,89.75c31.64,19.311,63.66,34.46,67.36,36.19l13.029,6.04l13.011-6.03c1.38-0.64,34.34-16.03,67.38-36.2
		c55.609-33.95,79.34-60.79,79.34-89.75v-107.21V65.539v-24.58C753.375,27.859,697.725,19.989,637.044,19.989"/>
	<path fill="#FFFFFF" d="M710.555,126.019l-102.83,107.829l-41.841-43.869l-30.739,32.239l72.58,76.11l133.58-140.08
		L710.555,126.019z"/>
	<g>
		<path fill="#FFFFFF" d="M228.743,97.72c-20.783,0-37.703,16.925-37.703,37.718c0,20.784,16.92,37.699,37.703,37.699
			c20.799,0,37.708-16.915,37.708-37.699C266.451,114.645,249.542,97.72,228.743,97.72"/>
		<path fill="#FFFFFF" d="M297.796,214.189c-1.327-2.531-14.533-24.755-69.053-24.766c-54.504,0.011-67.725,22.224-69.052,24.766
			l-0.891,1.687v82.453h139.88v-82.453L297.796,214.189z"/>
	</g>
</g>
</svg>
