<?xml version="1.0" encoding="utf-8"?>
<!-- Generator: Adobe Illustrator 15.0.0, SVG Export Plug-In . SVG Version: 6.00 Build 0)  -->
<!DOCTYPE svg PUBLIC "-//W3C//DTD SVG 1.1//EN" "http://www.w3.org/Graphics/SVG/1.1/DTD/svg11.dtd">
<svg version="1.1" id="Layer_1" xmlns="http://www.w3.org/2000/svg" xmlns:xlink="http://www.w3.org/1999/xlink" x="0px" y="0px"
	 width="840px" height="440px" viewBox="0 0 840 440" enable-background="new 0 0 840 440" xml:space="preserve">
<g>
	<path fill="#1B1A1E" d="M236.166,419.271c110.67,0,200.38-89.709,200.38-200.37c0-110.67-89.71-200.38-200.38-200.38
		c-110.659,0-200.37,89.71-200.37,200.38C35.795,329.562,125.506,419.271,236.166,419.271"/>
	<path fill="#1B1A1E" d="M644.474,19.989c-60.689,0-116.35,7.87-159.739,20.97v24.561v116.77v107.21
		c0,28.959,23.729,55.799,79.35,89.75c31.64,19.311,63.66,34.459,67.36,36.189l13.029,6.041l13.011-6.031
		c1.38-0.639,34.34-16.029,67.38-36.199c55.609-33.951,79.34-60.791,79.34-89.75v-107.21V65.539v-24.58
		C760.804,27.859,705.155,19.989,644.474,19.989"/>
	<g>
		<path fill="#FFFFFF" d="M236.173,97.72c-20.783,0-37.703,16.925-37.703,37.718c0,20.784,16.92,37.699,37.703,37.699
			c20.799,0,37.708-16.915,37.708-37.699C273.881,114.645,256.972,97.72,236.173,97.72"/>
		<path fill="#FFFFFF" d="M305.226,214.189c-1.327-2.531-14.533-24.755-69.053-24.766c-54.505,0.011-67.726,22.224-69.052,24.766
			l-0.891,1.687v82.454h139.88v-82.454L305.226,214.189z"/>
	</g>
	<path fill="#FFFFFF" d="M624.663,229.499c-0.266-2.156-0.266-7.817-0.266-10.24c0-35.578,36.384-47.977,36.384-67.114
		c0-9.967-8.083-15.91-18.864-15.91c-15.635,0-27.228,8.632-34.764,16.989l-21.844-27.221
		c13.752-15.627,34.508-26.143,60.376-26.143c34.499,0,57.944,22.366,57.944,48.242c0,18.872-8.615,31.263-18.052,39.886
		l-6.473,5.934c-9.163,8.357-17.245,16.44-17.245,30.458v5.119H624.663z M643.535,243.509c13.734,0,25.055,11.594,25.055,25.328
		c0,13.77-11.32,25.072-25.055,25.072c-13.751,0-25.345-11.303-25.345-25.072C618.19,255.103,629.784,243.509,643.535,243.509"/>
</g>
</svg>
